<?xml version="1.0" encoding="UTF-8" standalone="no"?>
<svg
   xmlns:dc="http://purl.org/dc/elements/1.1/"
   xmlns:cc="http://creativecommons.org/ns#"
   xmlns:rdf="http://www.w3.org/1999/02/22-rdf-syntax-ns#"
   xmlns:svg="http://www.w3.org/2000/svg"
   xmlns="http://www.w3.org/2000/svg"
   xmlns:sodipodi="http://sodipodi.sourceforge.net/DTD/sodipodi-0.dtd"
   xmlns:inkscape="http://www.inkscape.org/namespaces/inkscape"
   version="1.1"
   id="svg2"
   xml:space="preserve"
   width="799.71466"
   height="696.82001"
   viewBox="0 0 799.71466 696.82001"
   sodipodi:docname="Vector Smart Object7.ai"><metadata
     id="metadata8"><rdf:RDF><cc:Work
         rdf:about=""><dc:format>image/svg+xml</dc:format><dc:type
           rdf:resource="http://purl.org/dc/dcmitype/StillImage" /></cc:Work></rdf:RDF></metadata><defs
     id="defs6"><clipPath
       clipPathUnits="userSpaceOnUse"
       id="clipPath18"><path
         d="M 0,522.615 H 599.786 V 0 H 0 Z"
         id="path16" /></clipPath></defs><sodipodi:namedview
     pagecolor="#ffffff"
     bordercolor="#666666"
     borderopacity="1"
     objecttolerance="10"
     gridtolerance="10"
     guidetolerance="10"
     inkscape:pageopacity="0"
     inkscape:pageshadow="2"
     inkscape:window-width="640"
     inkscape:window-height="480"
     id="namedview4" /><g
     id="g10"
     inkscape:groupmode="layer"
     inkscape:label="Vector Smart Object7"
     transform="matrix(1.3333333,0,0,-1.3333333,0,696.82)"><g
       id="g12"><g
         id="g14"
         clip-path="url(#clipPath18)"><g
           id="g20"
           transform="translate(426.3071,261.3075)"><path
             d="m 0,0 c 0,-91.127 -73.873,-165 -165,-165 -91.127,0 -165,73.873 -165,165 0,91.127 73.873,165 165,165 C -73.873,165 0,91.127 0,0"
             style="fill:#ffffff;fill-opacity:1;fill-rule:nonzero;stroke:none"
             id="path22" /></g><g
           id="g24"
           transform="translate(426.3071,261.3075)"><path
             d="m 0,0 c 0,-91.127 -73.873,-165 -165,-165 -91.127,0 -165,73.873 -165,165 0,91.127 73.873,165 165,165 C -73.873,165 0,91.127 0,0 Z"
             style="fill:none;stroke:#58595b;stroke-width:1;stroke-linecap:butt;stroke-linejoin:miter;stroke-miterlimit:10;stroke-dasharray:none;stroke-opacity:1"
             id="path26" /></g><g
           id="g28"
           transform="translate(74.9995,0.4999)"><path
             d="m 0,0 c -19.899,0 -38.608,7.75 -52.68,21.821 -29.047,29.047 -29.047,76.311 0,105.359 14.065,14.063 32.763,21.808 52.652,21.808 16.479,0 32.69,-5.544 45.649,-15.61 0.091,-0.07 0.199,-0.105 0.307,-0.105 0.129,0 0.257,0.05 0.353,0.147 l 20.774,20.773 c 0.187,0.187 0.196,0.488 0.02,0.686 -25.967,29.208 -40.267,66.828 -40.267,105.929 0,87.948 71.551,159.5 159.5,159.5 87.948,0 159.5,-71.552 159.5,-159.5 0,-87.949 -71.552,-159.5 -159.5,-159.5 -39.102,0 -76.721,14.3 -105.929,40.267 -0.095,0.084 -0.214,0.126 -0.332,0.126 -0.128,0 -0.256,-0.049 -0.354,-0.146 L 58.92,120.781 c -0.179,-0.178 -0.196,-0.461 -0.041,-0.66 C 81.833,90.57 79.169,48.31 52.68,21.821 38.608,7.75 19.9,0 0,0"
             style="fill:#f99d27;fill-opacity:1;fill-rule:nonzero;stroke:none"
             id="path30" /></g><g
           id="g32"
           transform="translate(261.3071,421.307)"><path
             d="m 0,0 c -88.365,0 -160,-71.634 -160,-160 0,-40.787 15.271,-78.001 40.394,-106.26 l -20.774,-20.774 c -13.484,10.474 -29.724,15.714 -45.956,15.715 -19.185,0.002 -38.364,-7.315 -53.005,-21.955 -29.289,-29.289 -29.289,-76.777 0,-106.066 14.645,-14.645 33.84,-21.967 53.033,-21.967 19.196,0 38.389,7.322 53.034,21.967 27.027,27.028 29.093,69.54 6.24,98.961 l 20.773,20.773 C -78.001,-304.73 -40.786,-320 0,-320 c 88.366,0 160,71.635 160,160 C 160,-71.634 88.366,0 0,0 M 0,-1 C 42.471,-1 82.399,-17.539 112.431,-47.57 142.461,-77.601 159,-117.529 159,-160 159,-202.47 142.461,-242.398 112.431,-272.43 82.399,-302.461 42.471,-319 0,-319 c -38.979,0 -76.48,14.256 -105.596,40.142 -0.19,0.169 -0.426,0.252 -0.665,0.252 -0.256,0 -0.511,-0.098 -0.707,-0.293 l -20.773,-20.773 c -0.357,-0.357 -0.393,-0.923 -0.082,-1.321 22.801,-29.353 20.152,-71.329 -6.158,-97.64 -13.977,-13.977 -32.56,-21.674 -52.327,-21.674 -19.765,0 -38.348,7.697 -52.326,21.674 -28.851,28.853 -28.851,75.8 0,104.652 13.971,13.969 32.541,21.663 52.298,21.662 16.37,-10e-4 32.473,-5.508 45.343,-15.505 0.181,-0.14 0.397,-0.21 0.613,-0.21 0.257,0 0.514,0.099 0.707,0.293 l 20.774,20.774 c 0.375,0.374 0.392,0.976 0.041,1.371 C -144.744,-236.48 -159,-198.979 -159,-160 c 0,42.471 16.539,82.399 46.57,112.43 C -82.398,-17.539 -42.47,-1 0,-1"
             style="fill:#58595b;fill-opacity:1;fill-rule:nonzero;stroke:none"
             id="path34" /></g><g
           id="g36"
           transform="translate(406.3071,261.3075)"><path
             d="m 0,0 c 0,-80.082 -64.919,-145 -145,-145 -80.081,0 -145,64.918 -145,145 0,80.081 64.919,145 145,145 C -64.919,145 0,80.081 0,0"
             style="fill:#ffffff;fill-opacity:1;fill-rule:nonzero;stroke:none"
             id="path38" /></g><g
           id="g40"
           transform="translate(406.3071,261.3075)"><path
             d="m 0,0 c 0,-80.082 -64.919,-145 -145,-145 -80.081,0 -145,64.918 -145,145 0,80.081 64.919,145 145,145 C -64.919,145 0,80.081 0,0 Z"
             style="fill:none;stroke:#58595b;stroke-width:1;stroke-linecap:butt;stroke-linejoin:miter;stroke-miterlimit:10;stroke-dasharray:none;stroke-opacity:1"
             id="path42" /></g><g
           id="g44"
           transform="translate(447.6147,0.4999)"><path
             d="m 0,0 c -19.9,0 -38.608,7.75 -52.68,21.821 -26.489,26.489 -29.154,68.748 -6.199,98.3 0.155,0.199 0.138,0.482 -0.041,0.66 l -34.939,34.94 c -0.098,0.097 -0.226,0.147 -0.354,0.147 -0.117,0 -0.234,-0.041 -0.329,-0.124 -25.405,-22.206 -57.995,-34.436 -91.766,-34.436 -76.921,0 -139.5,62.579 -139.5,139.5 0,76.92 62.579,139.5 139.5,139.5 76.921,0 139.5,-62.58 139.5,-139.5 0,-33.772 -12.229,-66.361 -34.436,-91.766 -0.173,-0.198 -0.163,-0.496 0.023,-0.682 l 34.94,-34.94 c 0.096,-0.097 0.224,-0.147 0.353,-0.147 0.108,0 0.216,0.035 0.307,0.105 12.959,10.066 29.171,15.61 45.65,15.61 19.889,0 38.587,-7.745 52.651,-21.808 C 81.727,98.132 81.727,50.868 52.68,21.821 38.608,7.75 19.9,0 0,0"
             style="fill:#6cbe4e;fill-opacity:1;fill-rule:nonzero;stroke:none"
             id="path46" /></g><g
           id="g48"
           transform="translate(261.3071,401.307)"><path
             d="m 0,0 c -77.319,0 -140,-62.68 -140,-140 0,-77.319 62.681,-140 140,-140 35.264,0 67.478,13.042 92.095,34.561 l 34.939,-34.94 c -22.853,-29.421 -20.787,-71.933 6.24,-98.961 14.645,-14.645 33.839,-21.967 53.034,-21.967 19.193,0 38.388,7.322 53.033,21.967 29.289,29.289 29.289,76.777 0,106.066 -14.639,14.639 -33.82,21.955 -53.004,21.955 -16.235,0 -32.471,-5.24 -45.957,-15.715 l -34.94,34.94 C 126.958,-207.478 140,-175.263 140,-140 140,-62.68 77.319,0 0,0 M 0,-1 C 37.128,-1 72.034,-15.458 98.288,-41.712 124.542,-67.966 139,-102.872 139,-140 c 0,-33.65 -12.187,-66.123 -34.313,-91.436 -0.346,-0.396 -0.327,-0.993 0.046,-1.365 l 34.94,-34.94 c 0.193,-0.194 0.45,-0.293 0.707,-0.293 0.216,0 0.432,0.07 0.613,0.21 12.872,9.999 28.975,15.505 45.344,15.505 19.755,0 38.328,-7.693 52.297,-21.662 13.976,-13.977 21.674,-32.56 21.674,-52.326 0,-19.766 -7.698,-38.349 -21.674,-52.326 -13.977,-13.977 -32.561,-21.674 -52.326,-21.674 -19.766,0 -38.35,7.697 -52.327,21.674 -26.31,26.311 -28.958,68.287 -6.158,97.64 0.311,0.398 0.275,0.964 -0.082,1.321 l -34.939,34.94 c -0.196,0.194 -0.451,0.293 -0.707,0.293 -0.235,0 -0.47,-0.082 -0.658,-0.248 C 66.123,-266.813 33.65,-279 0,-279 c -37.128,0 -72.034,14.459 -98.288,40.712 -26.254,26.254 -40.712,61.16 -40.712,98.288 0,37.128 14.458,72.034 40.712,98.288 C -72.034,-15.458 -37.128,-1 0,-1"
             style="fill:#58595b;fill-opacity:1;fill-rule:nonzero;stroke:none"
             id="path50" /></g><g
           id="g52"
           transform="translate(386.3071,261.3075)"><path
             d="m 0,0 c 0,-69.036 -55.964,-125 -125,-125 -69.035,0 -125,55.964 -125,125 0,69.035 55.965,125 125,125 C -55.964,125 0,69.035 0,0"
             style="fill:#ffffff;fill-opacity:1;fill-rule:nonzero;stroke:none"
             id="path54" /></g><g
           id="g56"
           transform="translate(386.3071,261.3075)"><path
             d="m 0,0 c 0,-69.036 -55.964,-125 -125,-125 -69.035,0 -125,55.964 -125,125 0,69.035 55.965,125 125,125 C -55.964,125 0,69.035 0,0 Z"
             style="fill:none;stroke:#58595b;stroke-width:1;stroke-linecap:butt;stroke-linejoin:miter;stroke-miterlimit:10;stroke-dasharray:none;stroke-opacity:1"
             id="path58" /></g><g
           id="g60"
           transform="translate(261.3071,141.8075)"><path
             d="m 0,0 c -65.893,0 -119.5,53.607 -119.5,119.5 0,65.893 53.607,119.5 119.5,119.5 30.281,0 59.166,-11.347 81.333,-31.949 22.05,-20.494 35.474,-48.25 37.801,-78.153 0.019,-0.261 0.237,-0.461 0.498,-0.461 h 69.459 c 0.252,0 0.465,0.187 0.496,0.437 4.664,37.128 36.431,65.126 73.892,65.126 41.079,0 74.5,-33.42 74.5,-74.5 0,-41.08 -33.421,-74.5 -74.5,-74.5 -37.461,0 -69.228,27.998 -73.892,65.125 -0.031,0.25 -0.244,0.438 -0.496,0.438 h -69.459 c -0.261,0 -0.479,-0.201 -0.498,-0.461 C 116.807,80.198 103.383,52.443 81.333,31.949 59.166,11.346 30.281,0 0,0"
             style="fill:#03b292;fill-opacity:1;fill-rule:nonzero;stroke:none"
             id="path62" /></g><g
           id="g64"
           transform="translate(261.3071,381.307)"><path
             d="m 0,0 c -66.274,0 -120,-53.726 -120,-120 0,-66.274 53.726,-120 120,-120 63.099,0 114.819,48.701 119.632,110.563 h 69.459 C 193.734,-166.4 225.256,-195 263.479,-195 c 41.42,0 75,33.579 75,75 0,41.422 -33.58,75 -75,75 -38.223,0 -69.745,-28.6 -74.388,-65.563 H 119.632 C 114.819,-48.7 63.099,0 0,0 m 0,-1 c 30.155,0 58.919,-11.299 80.992,-31.815 21.958,-20.409 35.326,-48.047 37.644,-77.826 0.04,-0.52 0.474,-0.922 0.996,-0.922 h 69.459 c 0.504,0 0.929,0.375 0.992,0.875 4.633,36.878 36.187,64.688 73.396,64.688 40.803,0 74,-33.196 74,-74 0,-40.804 -33.197,-74 -74,-74 -37.21,0 -68.763,27.81 -73.396,64.688 -0.063,0.5 -0.488,0.875 -0.992,0.875 h -69.459 c -0.522,0 -0.956,-0.401 -0.996,-0.922 -2.318,-29.778 -15.686,-57.417 -37.644,-77.825 C 58.919,-227.701 30.155,-239 0,-239 c -31.786,0 -61.669,12.378 -84.146,34.854 -22.476,22.477 -34.854,52.36 -34.854,84.146 0,31.786 12.378,61.67 34.854,84.146 C -61.669,-13.378 -31.786,-1 0,-1"
             style="fill:#58595b;fill-opacity:1;fill-rule:nonzero;stroke:none"
             id="path66" /></g><g
           id="g68"
           transform="translate(366.3071,261.3075)"><path
             d="m 0,0 c 0,-57.99 -47.01,-105 -105,-105 -57.989,0 -105,47.01 -105,105 0,57.99 47.011,105 105,105 C -47.01,105 0,57.99 0,0"
             style="fill:#ffffff;fill-opacity:1;fill-rule:nonzero;stroke:none"
             id="path70" /></g><g
           id="g72"
           transform="translate(366.3071,261.3075)"><path
             d="m 0,0 c 0,-57.99 -47.01,-105 -105,-105 -57.989,0 -105,47.01 -105,105 0,57.99 47.011,105 105,105 C -47.01,105 0,57.99 0,0 Z"
             style="fill:none;stroke:#58595b;stroke-width:1;stroke-linecap:butt;stroke-linejoin:miter;stroke-miterlimit:10;stroke-dasharray:none;stroke-opacity:1"
             id="path74" /></g><g
           id="g76"
           transform="translate(261.3071,161.8075)"><path
             d="m 0,0 c -54.864,0 -99.5,44.635 -99.5,99.5 0,54.864 44.636,99.5 99.5,99.5 23.112,0 45.63,-8.103 63.405,-22.816 0.093,-0.077 0.205,-0.115 0.319,-0.115 0.128,0 0.256,0.049 0.353,0.146 l 63.311,63.311 c 0.178,0.179 0.196,0.462 0.041,0.661 -22.954,29.551 -20.289,71.811 6.199,98.3 14.071,14.071 32.779,21.82 52.68,21.82 19.9,0 38.608,-7.749 52.679,-21.82 29.047,-29.048 29.047,-76.312 0,-105.36 -14.063,-14.063 -32.759,-21.808 -52.644,-21.808 h -0.006 c -16.481,0.001 -32.693,5.545 -45.65,15.61 -0.091,0.071 -0.2,0.105 -0.307,0.105 -0.129,0 -0.257,-0.049 -0.354,-0.146 L 76.716,163.576 C 76.533,163.394 76.52,163.103 76.685,162.904 91.397,145.129 99.5,122.612 99.5,99.5 99.5,44.635 54.864,0 0,0"
             style="fill:#29abe2;fill-opacity:1;fill-rule:nonzero;stroke:none"
             id="path78" /></g><g
           id="g80"
           transform="translate(447.6147,522.6146)"><path
             d="m 0,0 c -19.194,0 -38.389,-7.322 -53.033,-21.967 -27.028,-27.028 -29.094,-69.54 -6.24,-98.961 l -63.311,-63.31 c -17.303,14.322 -39.508,22.93 -63.724,22.93 -55.228,0 -100,-44.771 -100,-99.999 0,-55.229 44.772,-100 100,-100 55.229,0 100,44.771 100,100 0,24.216 -8.608,46.42 -22.93,63.723 l 63.31,63.311 c 13.485,-10.474 29.724,-15.715 45.957,-15.715 19.186,0 38.364,7.315 53.004,21.955 29.289,29.289 29.289,76.777 0,106.066 C 38.389,-7.322 19.194,0 0,0 M 0,-1 C 19.766,-1 38.35,-8.697 52.326,-22.674 66.303,-36.651 74,-55.234 74,-75 c 0,-19.766 -7.697,-38.349 -21.674,-52.326 -13.97,-13.969 -32.543,-21.662 -52.297,-21.662 -16.369,0 -32.471,5.506 -45.343,15.505 -0.182,0.14 -0.398,0.21 -0.614,0.21 -0.257,0 -0.513,-0.099 -0.707,-0.293 l -63.31,-63.311 c -0.366,-0.365 -0.393,-0.948 -0.065,-1.345 14.641,-17.685 22.702,-40.089 22.702,-63.085 0,-54.589 -44.411,-99 -99,-99 -54.588,0 -99,44.411 -99,99 0,54.588 44.412,98.999 99,98.999 22.996,0 45.4,-8.062 63.085,-22.701 0.187,-0.154 0.412,-0.229 0.639,-0.229 0.256,0 0.512,0.098 0.707,0.293 l 63.311,63.31 c 0.356,0.357 0.392,0.923 0.082,1.321 -22.8,29.353 -20.153,71.329 6.158,97.64 C -38.35,-8.697 -19.766,-1 0,-1"
             style="fill:#58595b;fill-opacity:1;fill-rule:nonzero;stroke:none"
             id="path82" /></g><g
           id="g84"
           transform="translate(346.3071,261.3075)"><path
             d="m 0,0 c 0,-46.944 -38.056,-85 -85,-85 -46.944,0 -85,38.056 -85,85 0,46.944 38.056,85 85,85 C -38.056,85 0,46.944 0,0"
             style="fill:#ffffff;fill-opacity:1;fill-rule:nonzero;stroke:none"
             id="path86" /></g><g
           id="g88"
           transform="translate(346.3071,261.3075)"><path
             d="m 0,0 c 0,-46.944 -38.056,-85 -85,-85 -46.944,0 -85,38.056 -85,85 0,46.944 38.056,85 85,85 C -38.056,85 0,46.944 0,0 Z"
             style="fill:none;stroke:#58595b;stroke-width:1;stroke-linecap:butt;stroke-linejoin:miter;stroke-miterlimit:10;stroke-dasharray:none;stroke-opacity:1"
             id="path90" /></g><g
           id="g92"
           transform="translate(490.0405,405.1884)"><path
             d="m 0,0 c -23.431,-23.432 -61.421,-23.432 -84.853,0 -23.431,23.431 -23.431,61.421 0,84.853 23.432,23.431 61.422,23.431 84.853,0 C 23.432,61.421 23.432,23.431 0,0"
             style="fill:#ffffff;fill-opacity:1;fill-rule:nonzero;stroke:none"
             id="path94" /></g><g
           id="g96"
           transform="translate(32.5737,117.4266)"><path
             d="m 0,0 c 23.432,23.431 61.421,23.431 84.853,0 23.431,-23.432 23.431,-61.421 0,-84.853 C 61.421,-108.285 23.432,-108.285 0,-84.853 -23.432,-61.421 -23.432,-23.432 0,0"
             style="fill:#ffffff;fill-opacity:1;fill-rule:nonzero;stroke:none"
             id="path98" /></g><g
           id="g100"
           transform="translate(405.188,32.5736)"><path
             d="m 0,0 c -23.432,23.432 -23.432,61.421 0,84.853 23.432,23.431 61.422,23.431 84.853,0 C 108.284,61.421 108.284,23.432 84.853,0 61.422,-23.432 23.432,-23.432 0,0"
             style="fill:#ffffff;fill-opacity:1;fill-rule:nonzero;stroke:none"
             id="path102" /></g><g
           id="g104"
           transform="translate(524.7856,201.3075)"><path
             d="m 0,0 c -33.137,0 -60,26.863 -60,60 0,33.137 26.863,60 60,60 C 33.137,120 60,93.137 60,60 60,26.863 33.137,0 0,0"
             style="fill:#ffffff;fill-opacity:1;fill-rule:nonzero;stroke:none"
             id="path106" /></g><g
           id="g108"
           transform="translate(261.3071,181.8075)"><path
             d="m 0,0 c -43.837,0 -79.5,35.664 -79.5,79.5 0,18.021 5.899,35.026 17.06,49.177 0.157,0.199 0.14,0.484 -0.039,0.663 l -77.547,77.548 c -0.097,0.097 -0.225,0.146 -0.354,0.146 -0.107,0 -0.216,-0.034 -0.307,-0.105 -12.959,-10.066 -29.17,-15.61 -45.649,-15.61 -19.889,0 -38.588,7.745 -52.651,21.808 -29.047,29.048 -29.047,76.312 0,105.36 14.071,14.071 32.78,21.82 52.679,21.82 19.901,0 38.609,-7.749 52.68,-21.82 26.488,-26.489 29.153,-68.749 6.199,-98.3 -0.155,-0.199 -0.137,-0.482 0.041,-0.661 l 77.547,-77.547 c 0.097,-0.097 0.225,-0.146 0.354,-0.146 0.109,0 0.218,0.035 0.309,0.107 C -35.025,153.101 -18.02,159 0,159 43.837,159 79.5,123.336 79.5,79.5 79.5,35.664 43.837,0 0,0"
             style="fill:#014e7c;fill-opacity:1;fill-rule:nonzero;stroke:none"
             id="path110" /></g><g
           id="g112"
           transform="translate(74.9995,522.6146)"><path
             d="m 0,0 c -19.193,0 -38.388,-7.322 -53.033,-21.967 -29.289,-29.289 -29.289,-76.777 0,-106.066 14.639,-14.639 33.821,-21.955 53.005,-21.955 16.235,0 32.47,5.239 45.956,15.715 l 77.547,-77.547 c -10.741,-13.618 -17.167,-30.797 -17.167,-49.487 0,-44.183 35.817,-80 80,-80 44.182,0 80,35.817 80,80 0,44.182 -35.818,79.999 -80,79.999 -18.691,0 -35.869,-6.426 -49.488,-17.167 l -77.547,77.547 c 22.854,29.421 20.788,71.933 -6.24,98.961 C 38.389,-7.322 19.195,0 0,0 m 0,-1 c 19.767,0 38.35,-7.697 52.326,-21.674 26.311,-26.311 28.958,-68.287 6.158,-97.64 -0.31,-0.398 -0.274,-0.964 0.082,-1.321 l 77.547,-77.547 c 0.195,-0.194 0.451,-0.293 0.708,-0.293 0.218,0 0.437,0.071 0.618,0.215 14.063,11.091 30.961,16.952 48.869,16.952 43.56,0 79,-35.439 79,-78.999 0,-43.561 -35.44,-79 -79,-79 -43.561,0 -79,35.439 -79,79 0,17.907 5.862,34.805 16.952,48.867 0.314,0.398 0.281,0.968 -0.078,1.327 l -77.547,77.547 c -0.194,0.194 -0.45,0.293 -0.707,0.293 -0.216,0 -0.432,-0.07 -0.614,-0.21 -12.871,-9.998 -28.974,-15.505 -45.342,-15.505 -19.755,0 -38.328,7.693 -52.298,21.662 -28.852,28.853 -28.852,75.799 0,104.652 C -38.349,-8.697 -19.766,-1 0,-1"
             style="fill:#58595b;fill-opacity:1;fill-rule:nonzero;stroke:none"
             id="path114" /></g><g
           id="g116"
           transform="translate(117.4263,490.0409)"><path
             d="m 0,0 c 23.432,-23.431 23.432,-61.421 0,-84.853 -23.432,-23.431 -61.421,-23.431 -84.853,0 -23.431,23.432 -23.431,61.422 0,84.853 C -61.421,23.432 -23.432,23.432 0,0"
             style="fill:#ffffff;fill-opacity:1;fill-rule:nonzero;stroke:none"
             id="path118" /></g><g
           id="g120"
           transform="translate(326.3071,261.3075)"><path
             d="m 0,0 c 0,-35.899 -29.102,-65 -65,-65 -35.898,0 -65,29.101 -65,65 0,35.898 29.102,65 65,65 C -29.102,65 0,35.898 0,0"
             style="fill:#ffffff;fill-opacity:1;fill-rule:nonzero;stroke:none"
             id="path122" /></g><g
           id="g124"
           transform="translate(326.3071,261.3075)"><path
             d="m 0,0 c 0,-35.899 -29.102,-65 -65,-65 -35.898,0 -65,29.101 -65,65 0,35.898 29.102,65 65,65 C -29.102,65 0,35.898 0,0 Z"
             style="fill:none;stroke:#58595b;stroke-width:1;stroke-linecap:butt;stroke-linejoin:miter;stroke-miterlimit:10;stroke-dasharray:none;stroke-opacity:1"
             id="path126" /></g></g></g></g></svg>
